<svg width="21" height="21" viewBox="0 0 21 21" fill="none" xmlns="http://www.w3.org/2000/svg">
<path d="M18.6667 0H8.00001V3.44532H9.33334V1.37813H18.6667C19.0667 1.37813 19.3334 1.65375 19.3334 2.06719V9.64689C19.3334 10.0603 19.0667 10.336 18.6667 10.336H10V15.1594H6.46667L4 17.1577V15.1594H2C1.6 15.1594 1.33333 14.8838 1.33333 14.4703V6.89064C1.33333 6.4772 1.6 6.20158 2 6.20158H10.6667V4.82345H2C0.866668 4.82345 0 5.71923 0 6.89064V14.4703C0 15.6418 0.866668 16.5375 2 16.5375H2.66667V20.0518L6.86667 16.5375H11.3333V11.7141H18.6667C19.8 11.7141 20.6667 10.8183 20.6667 9.64689V2.06719C20.6667 0.895783 19.8 0 18.6667 0Z" fill="#E8112B"/>
<path d="M2.79688 13.7126H4.39688L4.79688 12.6102H6.86355L7.26355 13.7126H8.86356L6.59688 7.58008H4.99688L2.79688 13.7126ZM5.79688 9.30271L6.46355 11.4388H5.13021L5.79688 9.30271Z" fill="#E8112B"/>
<path d="M12 9.64722C12.7333 9.64722 13.7333 9.44049 14.6667 8.95814C15.6 9.44049 16.6667 9.64722 17.3333 9.64722V8.26907C17.3333 8.26907 16.6667 8.26907 15.9333 7.99344C16.7333 7.16654 17.3333 5.92621 17.3333 4.13461V3.44553H15.3333V2.06738H14V3.44553H12V4.82369H15.9333C15.8 6.06402 15.2667 6.82201 14.6667 7.30436C14.2667 6.95982 13.8667 6.47747 13.6 5.8573H12.2C12.4667 6.7531 12.8667 7.44217 13.4 7.99344C12.7333 8.26907 12.1333 8.26907 12 8.26907V9.64722Z" fill="#E8112B"/>
</svg>
