<svg xmlns="http://www.w3.org/2000/svg" width="179" height="36" fill="none" viewBox="0 0 179 36">
  <path fill="#F0B90B" d="m8.13 18-4.067 4.066L0 18l4.063-4.066L8.13 18Zm9.86-9.872 6.963 6.97 4.063-4.065L17.99 0 6.963 11.033l4.064 4.066 6.963-6.971Zm13.93 5.806L27.855 18l4.063 4.066L35.98 18l-4.06-4.066ZM17.99 27.872l-6.963-6.967-4.064 4.062L17.99 36l11.026-11.033-4.063-4.062-6.963 6.967Zm0-5.806L22.053 18l-4.063-4.066L13.926 18l4.064 4.066Zm42.882.39V22.4c0-2.652-1.406-3.978-3.694-4.85 1.406-.791 2.594-2.033 2.594-4.26v-.055c0-3.102-2.481-5.107-6.513-5.107h-9.153v19.744h9.385c4.453 0 7.388-1.804 7.388-5.416h-.007Zm-5.413-8.44c0 1.466-1.212 2.088-3.128 2.088h-3.997v-4.167h4.285c1.831 0 2.847.731 2.847 2.029l-.007.05Zm1.1 7.898c0 1.467-1.156 2.142-3.075 2.142h-5.15V19.72h5.016c2.229 0 3.216.82 3.216 2.145l-.007.05Zm13.435 5.958V8.128h-4.355v19.744h4.355Zm23.336 0V8.128h-4.3v12.158L79.787 8.128h-4.003v19.744h4.285V15.32l9.553 12.552h3.709Zm24.045 0-8.471-19.885h-4.003l-8.454 19.885h4.426l1.81-4.428h8.344l1.804 4.428h4.544Zm-7.891-8.265h-5.258l2.622-6.4 2.636 6.4Zm28.584 8.265V8.128h-4.299v12.158l-9.248-12.158h-4v19.744h4.282V15.32l9.557 12.552h3.708Zm22.408-3.186-2.759-2.793c-1.55 1.407-2.932 2.311-5.188 2.311-3.382 0-5.723-2.814-5.723-6.204v-.056c0-3.384 2.398-6.148 5.723-6.148 1.972 0 3.515.844 5.047 2.226l2.752-3.186c-1.831-1.804-4.056-3.046-7.778-3.046-6.06 0-10.288 4.597-10.288 10.2v.056c0 5.67 4.312 10.153 10.119 10.153 3.8.01 6.053-1.343 8.081-3.513h.014ZM179 27.872v-3.869h-10.728V19.85h9.304v-3.87h-9.304v-3.988h10.573V8.124h-14.886V27.87l15.041.003Z"/>
</svg>
