<svg xmlns="http://www.w3.org/2000/svg" width="173" height="29" fill="none" viewBox="0 0 173 29">
  <path fill="#00AFE9" d="M11.43.414c.25-.278.41-.412 1.183-.412.057 0 .117 0 .185-.002.925.036 1.667.218 2.276.76.61.529.735 1.824.762 2.402l.012.276c.028.724.08 2.108.598 2.828.613.862 1.278 1.111 2.069 1.111.19 0 .38-.012.568-.035 1.05-.126 1.345-.743 1.345-.743s-.88-.236-.88-1.342c-.006-.745.65-1.44 1.608-1.726.308-.088.644-.134.997-.134 1.128 0 2.396.47 3.239 1.574 1.925 2.526 2.08 6.199 1.61 9.63-.468 3.436-2.66 6.608-2.73 6.7-.04.057-.084.09-.126.09a.114.114 0 0 1-.082-.04c-.948-.899-1.843-2.152-2.23-2.985-.401.306-.213.954-.007 1.667l.029.099c.226.766.757 1.767.932 2.09l.017.029c.185.308.4.667.09.854a.258.258 0 0 1-.133.031c-.425 0-1.413-.732-2.532-2.209-1.245-1.65-1.884-3.132-1.884-3.132-.087.035-.23.174-.212.597.006.418.461 2.007 1.313 3.466a19.57 19.57 0 0 0 1.707 2.457l.106.133c.097.133.015.202-.05.245l-.023.021a20.504 20.504 0 0 1-3.784 2.65C14.774 28.756 13.612 29 13.612 29s-1.166-.25-3.794-1.643a21.11 21.11 0 0 1-3.73-2.59 1.93 1.93 0 0 0-.08-.067c-.063-.05-.148-.125-.049-.246l.103-.128c.281-.347.976-1.203 1.72-2.467.853-1.47 1.292-3.048 1.309-3.472.025-.417-.128-.57-.219-.591 0 0-.632 1.473-1.877 3.132-1.113 1.475-2.11 2.21-2.534 2.21a.242.242 0 0 1-.127-.032c-.31-.18-.114-.516.063-.82l.035-.06c.19-.326.714-1.334.93-2.093l.004-.014c.225-.738.436-1.427.026-1.752-.386.833-1.288 2.08-2.233 2.992a.122.122 0 0 1-.075.032c-.048 0-.09-.033-.136-.094-.064-.087-2.253-3.265-2.725-6.695-.47-3.424-.313-7.105 1.61-9.63.85-1.101 2.108-1.568 3.229-1.568.34-.003.68.043 1.009.135.95.278 1.61.966 1.617 1.718C7.681 6.363 6.804 6.6 6.804 6.6s.32.633 1.333.743c.3.028.58.028.58.028 2.179-.019 2.711-1.593 2.793-3.005.092-1.413-.664-1.948-1.687-2.068l-.048-.004a3.532 3.532 0 0 0-.294-.017c-.74 0-.965.328-.965.328-.335-.535-.036-1.266.593-1.68.652-.433 1.416-.52 2.01-.52.104 0 .207.003.31.009Zm155.904 5.02c2.168 0 4.163 1.265 5.089 2.933l.577-5.26c-.68 0-1.355-.084-2.105-.18-.939-.118-1.996-.25-3.329-.25-4.133 0-8.121 1.58-8.121 6.322 0 3.16 2.31 4.915 5.954 7.098 1.732 1.034 3.15 2.068 3.15 3.735 0 1.955-1.734 3.075-4.076 3.075-3.033 0-5.086-1.752-6.185-3.966l-.375 5.547c2.284.862 4.306 1.235 6.243 1.235 4.713 0 8.788-2.557 8.788-6.724 0-3.191-2.487-5.03-4.885-6.523a95.93 95.93 0 0 0-.644-.41c-1.948-1.23-3.664-2.315-3.664-3.843 0-2.013 1.677-2.789 3.583-2.789ZM150.627 16.24c.407-.864 1.069-2.04 1.591-2.903 1.098-1.838 6.302-9.97 7.458-10.23h-5.984c.231.26.318.833.318 1.351 0 .662-.289 1.351-.636 1.897-1.102 1.782-2.004 3.181-3.096 4.878l-.893 1.387c-.637-1.812-1.706-4.252-3.149-7.5-.926-2.012-1.332-2.213-2.834-2.213-.839 0-2.573.087-3.931.2.78.373 2.025 2.3 3.092 4.34 1.676 3.247 2.776 5.92 3.586 8.707.056 1.955-.379 8.132-1.446 9.137h6.04c-.462-.46-.636-1.81-.636-2.816 0-2.412.174-4.598.52-6.235Z"/>
  <path fill="#00AFE9" fill-rule="evenodd" d="M134.643 20.206c1.533 5.23 1.676 5.286 3.585 5.286.607 0 2.254-.056 3.412-.2-1.388-1.121-2.43-3.994-4.077-9.885l-.952-3.507c-.434-1.55-2.399-8.792-2.399-8.792h-4.856c.172.402.287.804.287 1.236 0 .602-1.444 3.764-2.917 6.868l-1.564 3.304c-1.154 2.47-2.341 4.856-3.381 6.753-1.675 1.121-2.601 1.207-6.3 1.207-1.042 0-1.446-.23-1.446-1.234 0-1.468.13-2.962.259-4.446.064-.725.127-1.447.174-2.164l.116-1.407c.404-5.892.722-9.454 1.591-10.116h-6.1c.404.431.549 1.38.578 2.874.03 1.81-.145 4.395-.377 7.758l-.086 1.407c-.433 5.892-.722 9.14-1.619 10.144h15.783a3.483 3.483 0 0 1-.145-1.005c0-1.032.652-2.436 1.256-3.737.104-.224.207-.445.304-.661l.463-.977h2.659c2.63 0 4.28-.201 5.204-.632l.548 1.926Zm-7.023-4.167 3.583-7.728 2.255 7.728h-5.838Z" clip-rule="evenodd"/>
  <path fill="#00AFE9" d="M89.811 15.724c0 5.287 3.325 9.999 9.077 9.999 4.422 0 7.111-2.212 8.267-5.891-2.863 1.982-4.567 2.499-6.504 2.499-3.583 0-6.272-2.614-6.272-7.383 0-4.397 1.937-9.513 6.706-9.513 2.398 0 4.191 1.351 5.289 3.334l.578-5.661c-.916 0-1.651-.097-2.426-.199-.862-.113-1.773-.233-3.037-.233-7.66 0-11.678 5.692-11.678 13.048Z"/>
  <path fill="#00AFE9" fill-rule="evenodd" d="M84.406 25.233c.549.748.954 1.007 2.601 1.007 1.1 0 2.804-.058 4.077-.201-1.013-.518-1.244-.69-4.077-4.396l-4.538-5.978-.034-.044c-.321-.405-.814-1.028-1.093-1.279 2.976-.918 5.376-2.873 5.376-6.435 0-4.338-3.7-4.8-6.388-4.8h-8.238c.435.345.607 1.323.637 2.904.03 1.809-.144 4.396-.376 7.729l-.087 1.407c-.493 6.782-.81 9.368-1.676 10.144h6.041c-.405-.374-.579-1.292-.607-2.786 0-1.35.086-3.162.232-5.432l.114-1.667h.145c.751 0 1.127.506 1.593 1.134l.054.073 6.244 8.62ZM77.21 5.867c.518-.058 1.185-.058 1.734-.058 2.11 0 3.324 1.006 3.324 2.732 0 2.527-1.91 4.195-4.683 4.195a5.6 5.6 0 0 1-1.013-.087l.116-1.554c.203-2.642.348-4.28.522-5.228ZM62.295 20.206c1.531 5.23 1.676 5.286 3.583 5.286.608 0 2.169-.056 3.412-.2-1.388-1.12-2.428-3.993-4.076-9.884L64.26 11.9c-1.128-3.993-2.398-8.792-2.398-8.792h-4.857c.175.402.29.803.29 1.236 0 .489-1.505 3.88-2.92 6.868l-1.562 3.304c-2.688 5.718-4.625 9.253-6.157 10.775h5.348a3.604 3.604 0 0 1-.145-1.005c-.024-1.026.75-2.667 1.277-3.787.108-.229.206-.436.284-.611l.462-.977h2.66c2.63 0 4.277-.201 5.203-.632l.55 1.926Zm-7.055-4.167 3.616-7.728 2.252 7.728H55.24Zm-25.06 9.252h7.804c5.955 0 9.596-3.046 9.597-6.896 0-3.563-2.601-5.229-6.07-5.574 2.456-.633 5.145-2.415 5.145-5.288 0-4.31-4.163-4.425-6.244-4.425h-8.73c.435.344.609 1.35.637 2.903.03 1.809-.144 4.395-.376 7.757l-.086 1.38c-.433 5.919-.694 9.28-1.677 10.143ZM36.799 5.84c.549-.058 1.126-.058 1.56-.058 2.631 0 3.875 1.034 3.875 2.53 0 2.584-2.602 3.56-5.435 3.56h-.578c.006-.053.087-1.35.087-1.35.114-1.637.26-3.13.49-4.682Zm-.75 8.734h1.589c2.947 0 5.29 1.034 5.29 3.88 0 2.558-2.054 4.109-5.176 4.109-1.502 0-2.138-.43-2.138-.633.03-1.437.088-2.642.203-4.08l.231-3.276Z" clip-rule="evenodd"/>
</svg>
