<svg xmlns="http://www.w3.org/2000/svg" width="186" height="36" fill="none" viewBox="0 0 186 36">
  <path fill="#002E73" d="M21.534 28.384h-2.197l-2.63-2.388V24.77l2.723-2.572v-4.073l3.558-2.296 4.053 3.031-5.507 9.523Zm-9.096-6.43.402-3.828-1.33-3.429h7.858l-1.3 3.43.372 3.827h-6.002Zm1.794 4.042-2.63 2.419H9.375L3.836 18.86l4.084-3 3.59 2.265V22.2l2.722 2.572v1.225ZM9.344 7.624h12.159l1.454 6.124H7.92l1.424-6.124ZM15.439 0 0 8.818v17.637l15.439 8.818 15.438-8.818V8.818L15.44 0Z"/>
  <path fill="#fff" d="M19.338 28.384h2.197l5.507-9.523-4.053-3.031-3.558 2.296V22.2l-2.721 2.57v1.224l2.63 2.389Z"/>
  <path fill="#fff" d="m12.841 18.126-.402 3.828h6.002l-.371-3.828 1.3-3.429h-7.86l1.331 3.43Z"/>
  <path fill="#fff" d="m11.604 28.414 2.63-2.419v-1.224l-2.723-2.572v-4.073l-3.59-2.265-4.083 3 5.538 9.553h2.228Zm9.9-20.79H9.345l-1.423 6.124h15.036l-1.454-6.124Z"/>
  <path fill="#002E73" d="M104.419 14.575v6.675c0 1.194.618 1.684 1.701 1.684h1.238v2.787h-2.166c-2.289 0-3.929-1.01-3.929-3.981v-7.165H99.53v-2.664h1.733V8.176h3.156v3.735h2.939v2.664h-2.939Zm-23.298-2.97-6.96 18.004h-3.188l1.517-3.797-5.972-14.207h3.373l4.053 10.503 3.898-10.503h3.28ZM41.117 18.77c0 3.889 3.001 7.042 7.085 7.042 2.661 0 4.239-1.071 5.6-2.51l-1.887-1.868c-.99.98-2.073 1.684-3.558 1.684-2.413 0-4.115-1.96-4.115-4.41 0-2.387 1.67-4.347 3.96-4.347 1.578 0 2.6.673 3.558 1.684l1.95-2.082c-1.27-1.378-2.878-2.327-5.477-2.327-4.084 0-7.116 3.245-7.116 7.134Zm15.501 7.042h3.155v-5.45c0-3.613 1.919-5.389 4.672-5.389h.186v-3.307c-2.413-.122-3.991 1.286-4.858 3.307v-3.307h-3.155v14.146Z"/>
  <path fill="#002E73" fill-rule="evenodd" d="M86.474 23.393c.96 1.256 2.382 2.389 4.64 2.389 3.28 0 6.405-2.572 6.405-7.104s-3.156-7.073-6.404-7.073c-2.197 0-3.62 1.133-4.641 2.541v-2.54h-3.156v18.003h3.156v-6.216Zm-.062-4.684c0-2.664 1.856-4.379 3.991-4.379s3.93 1.684 3.93 4.379c0 2.694-1.764 4.378-3.93 4.378-2.104 0-3.99-1.714-3.99-4.378Zm23.607.061c0 3.889 3.094 7.042 7.27 7.042 4.27 0 7.364-3.245 7.364-7.103 0-3.92-3.094-7.073-7.302-7.073-4.207 0-7.332 3.215-7.332 7.134Zm3.125-.092c0-2.388 1.608-4.348 4.145-4.348 2.476 0 4.239 1.99 4.177 4.41 0 2.388-1.609 4.347-4.146 4.347-2.444 0-4.176-1.99-4.176-4.409Zm41.613 7.134c-4.177 0-7.271-3.153-7.271-7.042 0-3.92 3.125-7.134 7.333-7.134 4.207 0 7.301 3.154 7.301 7.073 0 3.858-3.125 7.103-7.363 7.103Zm0-11.482c-2.537 0-4.146 1.96-4.146 4.348 0 2.419 1.732 4.41 4.177 4.41 2.537 0 4.145-1.96 4.145-4.349.031-2.419-1.701-4.409-4.176-4.409Z" clip-rule="evenodd"/>
  <path fill="#002E73" d="M185.634 16.81c0-3.337-1.826-5.205-4.827-5.205-2.073 0-3.527.95-4.671 2.419-.743-1.44-2.104-2.388-4.084-2.388-2.104 0-3.28 1.133-4.177 2.327v-2.327h-3.156v14.176h3.156v-7.96c0-2.113 1.206-3.4 2.939-3.4s2.785 1.195 2.785 3.308v8.052h3.155v-7.991c0-2.174 1.238-3.368 2.94-3.368 1.763 0 2.784 1.133 2.784 3.307v8.022h3.156V16.81Zm-58.228 5.971 1.362-.765h.185l1.393.765.092.153v1.592l-.092.154-1.393.765h-.185l-1.362-.765-.092-.154v-1.592l.092-.153Zm5.631-4.195c-.062 3.889 2.878 7.104 6.962 7.196 2.691.061 4.3-.98 5.692-2.42l-1.856-1.897c-.99.98-2.104 1.653-3.589 1.622-2.413-.03-4.084-2.02-4.022-4.47.031-2.419 1.733-4.317 4.022-4.287 1.578.03 2.599.766 3.527 1.776l1.98-2.051c-1.237-1.409-2.846-2.389-5.445-2.45-4.115-.092-7.209 3.093-7.271 6.981Z"/>
</svg>
