<svg xmlns="http://www.w3.org/2000/svg" width="186" height="19" fill="none" viewBox="0 0 186 19">
  <path fill="#E31837" d="M168.769 19c5.425-4.743 13.046-9.355 17.231-11.015a68.343 68.343 0 0 0-2.79-1.687c-5.399 1.818-11.702 5.85-17.334 10.41.956.737 1.963 1.501 2.893 2.292Z"/>
  <path fill="#012169" d="M166.289 6.114c-.801-.396-1.679-.765-2.351-1.08-2.041 1.027-4.701 2.582-8.06 5.032.724.396 1.499.87 2.325 1.345 2.584-1.95 5.193-3.795 8.086-5.297Z"/>
  <path fill="#E31837" d="M171.12 3.847c-.982-.553-4.392-1.844-6.743-2.398-.697.264-1.679.66-2.351.95.853.236 4.03 1.106 6.743 2.503.697-.343 1.679-.765 2.351-1.055Z"/>
  <path fill="#012169" d="M159.572 3.505c-3.022 1.423-6.2 3.373-7.93 4.506.62.29 1.24.527 2.092.949 3.823-2.635 6.82-4.243 8.008-4.77-.852-.316-1.653-.527-2.17-.685Z"/>
  <path fill="#E31837" d="M173.393 3.03c.698-.237 1.499-.447 2.196-.658-2.015-.87-4.546-1.792-6.82-2.372-.361.105-1.446.395-2.196.632.775.238 3.333.844 6.82 2.399Zm-12.735 9.909c.826.5 1.705 1.186 2.557 1.766 5.658-4.48 11.238-7.932 17.36-9.883-.852-.448-1.602-.843-2.557-1.317-3.669.949-9.946 3.505-17.36 9.434Z"/>
  <path fill="#012169" d="M0 17.63h4.133c2.093 0 3.074-1.107 3.074-2.662 0-1.265-.645-2.108-1.989-2.372 1.189-.29 1.731-1.027 1.731-2.108 0-1.37-.982-2.477-3.074-2.477H.025v9.619H0Zm3.59-4.085c.776 0 1.318.395 1.318 1.186 0 .843-.516 1.186-1.317 1.186H2.247v-2.398h1.344v.026Zm-.257-3.847c.774 0 1.317.342 1.317 1.133 0 .79-.517 1.133-1.318 1.133H2.248V9.698h1.084Zm12.219-1.713h-2.325l-3.54 9.645h2.351l.646-2.003h3.41l.646 2.003h2.377l-3.565-9.645Zm-1.163 2.319L15.5 13.86h-2.273l1.162-3.557Zm16.508-2.32h-2.144v6.457l-4.03-6.456H22.32v9.645h2.144V11.2l4.03 6.43h2.403V7.985Zm9.894 9.646-3.1-4.902v4.902h-2.3V7.985h2.3v4.638l2.945-4.638h2.557l-3.1 4.638 3.384 5.007h-2.686Zm10.824-4.823c0 1.924 1.137 3.11 2.61 3.11 1.472 0 2.608-1.186 2.608-3.11s-1.136-3.11-2.609-3.11c-1.472 0-2.61 1.187-2.61 3.11Zm-2.428 0c.025-2.82 1.963-5.033 5.037-5.033s5.012 2.214 5.038 5.033c-.026 2.82-1.964 5.033-5.038 5.033-3.074 0-5.012-2.213-5.037-5.033Zm13.226 4.823h2.3v-3.795h2.996V11.99h-2.997V9.83h3.617l.413-1.845h-6.329v9.645Zm17.05-9.645h-2.325L73.6 17.63h2.35l.647-2.003h3.41l.646 2.003h2.376l-3.565-9.645Zm-1.162 2.319 1.11 3.557h-2.273l1.163-3.557Zm18.367-2.32h-2.686l-2.455 5.219-2.454-5.218h-2.686v9.645h2.066v-6.457l3.049 6.457 3.048-6.457v6.457h2.144l-.026-9.645Zm4.469 9.646h6.459v-1.845h-4.159v-2.16h3.28v-1.793h-3.28V9.83h3.797l.413-1.844h-6.51v9.645Zm15.216 0h2.506l-2.351-4.085c1.292-.369 1.912-1.291 1.912-2.635 0-1.74-1.033-2.899-3.358-2.899h-3.643v9.645h2.248v-3.795h.62l2.066 3.769Zm-1.731-7.853c.956 0 1.447.421 1.447 1.238s-.491 1.239-1.447 1.239h-.981V9.777h.981Zm7.673 7.853h2.299V8.01h-2.299v9.619Zm13.614-2.583c-.878.633-1.653.843-2.454.843-1.757 0-2.997-1.238-2.997-3.083 0-1.845 1.214-3.083 2.919-3.083.775 0 1.55.21 2.403.843V8.38c-.775-.448-1.679-.632-2.687-.632-3.126 0-5.089 2.213-5.115 5.033.026 2.846 1.938 5.033 5.115 5.033 1.059 0 1.964-.184 2.79-.632v-2.135h.026Zm8.422-7.062h-2.325l-3.539 9.645h2.35l.646-2.003h3.41l.646 2.003h2.377l-3.565-9.645Zm-1.163 2.319 1.111 3.557h-2.273l1.162-3.557Z"/>
</svg>
