<svg xmlns="http://www.w3.org/2000/svg" width="159" height="39" fill="none" viewBox="0 0 159 39">
  <path fill="#253B80" d="m9.307 37.489.67-4.272-1.492-.035H1.36L6.31 1.661a.415.415 0 0 1 .139-.247.404.404 0 0 1 .264-.098h12.014c3.989 0 6.741.833 8.179 2.478.673.772 1.102 1.578 1.31 2.465.218.931.222 2.043.009 3.4l-.015.1v.868l.674.384c.567.302 1.017.648 1.363 1.044.577.66.95 1.498 1.107 2.492.163 1.022.109 2.239-.157 3.616-.308 1.584-.805 2.964-1.476 4.093a8.416 8.416 0 0 1-2.337 2.572c-.892.635-1.951 1.117-3.149 1.426-1.16.303-2.484.456-3.935.456h-.935c-.668 0-1.318.242-1.828.675a2.843 2.843 0 0 0-.953 1.708l-.07.385-1.184 7.528-.054.277c-.014.088-.038.131-.074.16a.2.2 0 0 1-.123.046H9.307Z"/>
  <path fill="#179BD7" d="M29.52 9.86c-.036.23-.077.466-.123.707-1.584 8.167-7.005 10.988-13.928 10.988h-3.525c-.847 0-1.56.618-1.692 1.456L7.936 37.76a.904.904 0 0 0 .89 1.047h6.252c.74 0 1.37-.54 1.486-1.273l.061-.32 1.178-7.498.075-.412a1.505 1.505 0 0 1 1.486-1.275h.935c6.057 0 10.8-2.47 12.185-9.614.58-2.985.28-5.477-1.253-7.23a5.977 5.977 0 0 0-1.71-1.324Z"/>
  <path fill="#222D65" d="M27.86 9.195a12.38 12.38 0 0 0-1.541-.344 19.502 19.502 0 0 0-3.108-.227h-9.417A1.506 1.506 0 0 0 12.31 9.9l-2.004 12.737-.058.372a1.714 1.714 0 0 1 1.693-1.456h3.524c6.924 0 12.345-2.822 13.929-10.988.047-.241.087-.477.123-.707a8.423 8.423 0 0 0-1.303-.551 11.341 11.341 0 0 0-.355-.112Z"/>
  <path fill="#253B80" d="M12.314 9.9A1.503 1.503 0 0 1 13.8 8.626h9.417c1.116 0 2.157.073 3.107.227a12.495 12.495 0 0 1 1.897.454c.468.156.902.34 1.303.552.471-3.018-.004-5.073-1.629-6.934C26.102.877 22.868 0 18.729 0H6.714a1.72 1.72 0 0 0-1.697 1.457L.013 33.302a1.035 1.035 0 0 0 1.018 1.199h7.418l3.865-24.6Z"/>
  <path fill="#253B80" fill-rule="evenodd" d="M59.311 8.324h-8.797c-.602 0-1.114.44-1.208 1.036l-3.558 22.648a.734.734 0 0 0 .725.85h4.2c.602 0 1.114-.44 1.208-1.037l.96-6.109a1.222 1.222 0 0 1 1.206-1.037h2.786c5.795 0 9.14-2.815 10.013-8.394.394-2.44.017-4.358-1.122-5.702-1.25-1.474-3.468-2.255-6.413-2.255Zm1.015 8.272c-.48 3.17-2.893 3.17-5.225 3.17h-1.328l.932-5.92a.734.734 0 0 1 .724-.62h.608c1.59 0 3.088 0 3.863.908.46.543.602 1.349.426 2.462Zm25.283-.101h-4.213a.735.735 0 0 0-.724.621l-.186 1.183-.295-.429c-.912-1.329-2.946-1.773-4.976-1.773-4.656 0-8.632 3.54-9.406 8.506-.402 2.476.17 4.845 1.57 6.496 1.283 1.52 3.12 2.152 5.306 2.152 3.75 0 5.831-2.422 5.831-2.422l-.188 1.176c-.07.45.274.852.723.852h3.795c.603 0 1.112-.44 1.208-1.037l2.277-14.476a.732.732 0 0 0-.722-.85Zm-5.872 8.231c-.407 2.417-2.317 4.039-4.753 4.039-1.224 0-2.202-.394-2.83-1.14-.622-.742-.859-1.797-.66-2.972.38-2.396 2.322-4.07 4.72-4.07 1.197 0 2.17.398 2.81 1.151.642.76.897 1.822.713 2.992Zm24.076-8.232h4.234c.593 0 .938.668.601 1.156l-14.08 20.404a1.22 1.22 0 0 1-1.005.527h-4.228a.736.736 0 0 1-.599-1.162l4.385-6.213-4.663-13.738a.736.736 0 0 1 .696-.974h4.16c.54 0 1.017.356 1.173.875l2.475 8.298 5.839-8.635a1.223 1.223 0 0 1 1.012-.538Z" clip-rule="evenodd"/>
  <path fill="#179BD7" fill-rule="evenodd" d="m149.716 32.006 3.61-23.062a.735.735 0 0 1 .723-.623h4.065c.449 0 .794.404.723.851l-3.561 22.647a1.223 1.223 0 0 1-1.208 1.037h-3.63a.733.733 0 0 1-.722-.85ZM122.065 8.322h-8.8c-.6 0-1.112.44-1.206 1.036l-3.558 22.648a.734.734 0 0 0 .723.85h4.515a.857.857 0 0 0 .844-.726l1.009-6.42a1.223 1.223 0 0 1 1.207-1.037h2.784c5.796 0 9.14-2.815 10.014-8.394.395-2.44.016-4.358-1.122-5.702-1.25-1.474-3.466-2.255-6.41-2.255Zm1.015 8.272c-.48 3.17-2.892 3.17-5.226 3.17h-1.326l.933-5.92a.73.73 0 0 1 .722-.62h.609c1.587 0 3.087 0 3.861.909.462.542.603 1.348.427 2.461Zm25.28-.102h-4.21a.73.73 0 0 0-.723.622l-.186 1.183-.296-.429c-.912-1.329-2.945-1.773-4.975-1.773-4.655 0-8.63 3.54-9.405 8.506-.401 2.476.169 4.845 1.568 6.497 1.287 1.518 3.121 2.15 5.307 2.15 3.751 0 5.831-2.42 5.831-2.42l-.188 1.175a.735.735 0 0 0 .726.852h3.793c.601 0 1.113-.44 1.207-1.037l2.278-14.476a.736.736 0 0 0-.727-.85Zm-5.872 8.232c-.404 2.416-2.317 4.038-4.753 4.038-1.221 0-2.201-.393-2.829-1.14-.623-.74-.857-1.796-.661-2.971.382-2.396 2.322-4.07 4.721-4.07 1.196 0 2.168.398 2.81 1.151.644.76.898 1.822.712 2.992Z" clip-rule="evenodd"/>
</svg>
